<?xml version="1.0" encoding="utf-8"?>
<!-- Generator: Adobe Illustrator 16.0.0, SVG Export Plug-In . SVG Version: 6.00 Build 0)  -->
<!DOCTYPE svg PUBLIC "-//W3C//DTD SVG 1.1//EN" "http://www.w3.org/Graphics/SVG/1.1/DTD/svg11.dtd">
<svg version="1.1" id="Layer_1" xmlns="http://www.w3.org/2000/svg" xmlns:xlink="http://www.w3.org/1999/xlink" x="0px" y="0px"
	 width="595.281px" height="595.281px" viewBox="123.305 0 595.281 595.281" enable-background="new 123.305 0 595.281 595.281"
	 xml:space="preserve">
<circle fill="#6EB1E1" cx="420.945" cy="297.64" r="297.64"/>
<path fill="#F1F3F7" d="M603.255,103.441h-364.62c-6.341,0-11.89,5.548-11.89,12.286V523.15
	c51.919,44.783,119.69,72.131,193.804,72.131c74.112,0,141.884-27.348,193.804-72.131V115.727
	C614.748,108.989,609.595,103.441,603.255,103.441z"/>
<g>
	<circle fill="#0090FF" cx="420.945" cy="256.026" r="65.79"/>
	<path fill="#0090FF" d="M541.033,414.953c-0.793-65.791-54.297-118.502-120.087-118.502c-65.79,0-119.294,53.107-120.086,118.502
		H541.033z"/>
</g>
<g>
	<rect x="300.859" y="465.683" fill="#DEDEDF" width="240.174" height="32.498"/>
	<path fill="#DEDEDF" d="M300.859,569.916c4.36,1.982,8.72,3.965,13.475,5.549h213.619c4.359-1.584,9.115-3.566,13.475-5.549
		v-26.949H300.859V569.916z"/>
</g>
<rect x="362.289" y="129.995" fill="#414753" width="116.916" height="17.834"/>
<rect x="385.275" y="42.803" fill="#F5EA0A" width="71.736" height="95.911"/>
<path fill="#FFFFFF" stroke="#000000" stroke-miterlimit="10" d="M-299.429,334.729"/>
<path d="M239.872,268.621h35.21v100.273h97.456v35.21h-97.456v94.077h-35.21v-94.077h-96.893v-35.21h96.893V268.621z"/>
</svg>
