<?xml version="1.0" encoding="iso-8859-1"?>
<!-- Generator: Adobe Illustrator 19.0.0, SVG Export Plug-In . SVG Version: 6.00 Build 0)  -->
<svg version="1.1" id="Capa_1" xmlns="http://www.w3.org/2000/svg" xmlns:xlink="http://www.w3.org/1999/xlink" x="0px" y="0px"
	 viewBox="0 0 491.52 491.52" style="enable-background:new 0 0 491.52 491.52;" xml:space="preserve">
<circle style="fill:#E05B49;" cx="245.76" cy="245.76" r="245.76"/>
<g>
	<path style="fill:#FFFFFF;" d="M380.927,104.96H110.594c-3.111,0-5.634,2.522-5.634,5.633v59.911c0,3.111,2.523,5.634,5.634,5.634
		h270.334c3.11,0,5.633-2.523,5.633-5.634v-59.911C386.56,107.482,384.037,104.96,380.927,104.96z"/>
	<path style="fill:#FFFFFF;" d="M380.927,219.018H110.594c-3.111,0-5.634,2.522-5.634,5.634v59.911c0,3.111,2.523,5.634,5.634,5.634
		h270.334c3.11,0,5.633-2.522,5.633-5.634v-59.911C386.56,221.54,384.037,219.018,380.927,219.018z"/>
</g>
<rect x="104.96" y="342.62" style="fill:#64798A;" width="281.6" height="43.94"/>
<g>
	<polygon style="fill:#FFFFFF;" points="217.895,354.94 215.114,354.94 215.114,371.441 225.426,371.441 225.426,368.798 
		217.895,368.798 	"/>
	<path style="fill:#FFFFFF;" d="M233.662,358.694c-1.882,0-3.458,0.626-4.718,1.879c-1.26,1.249-1.89,2.782-1.89,4.591
		s0.63,3.339,1.89,4.591c1.26,1.249,2.835,1.875,4.718,1.875c1.89,0,3.466-0.626,4.726-1.875c1.26-1.252,1.89-2.782,1.89-4.591
		s-0.63-3.342-1.89-4.591C237.128,359.32,235.553,358.694,233.662,358.694z M236.513,368.125c-0.753,0.761-1.698,1.145-2.851,1.145
		c-1.145,0-2.09-0.384-2.843-1.145c-0.745-0.764-1.122-1.752-1.122-2.962c0-1.214,0.376-2.202,1.122-2.962
		c0.753-0.765,1.698-1.145,2.843-1.145c1.153,0,2.098,0.38,2.851,1.145c0.745,0.76,1.122,1.748,1.122,2.962
		C237.635,366.374,237.259,367.361,236.513,368.125z"/>
	<path style="fill:#FFFFFF;" d="M252.242,360.749c-1.037-1.372-2.389-2.055-4.049-2.055c-1.659,0-3.019,0.584-4.095,1.748
		c-1.068,1.164-1.606,2.612-1.606,4.341c0,1.733,0.538,3.181,1.606,4.345c1.076,1.164,2.443,1.748,4.111,1.748
		c0.914,0,1.736-0.223,2.466-0.661c0.73-0.442,1.291-1.033,1.691-1.771v1.606c0,1.414-0.369,2.443-1.099,3.089
		c-0.737,0.645-1.729,0.968-2.973,0.968c-1.253,0-2.49-0.465-3.719-1.391l-1.252,2.005c1.529,1.18,3.235,1.771,5.125,1.771
		c1.883,0,3.434-0.557,4.633-1.663c1.206-1.11,1.806-2.773,1.806-4.995v-10.953h-2.643V360.749z M251.243,367.38
		c-0.668,0.726-1.544,1.087-2.62,1.087c-1.083,0-1.936-0.373-2.574-1.122c-0.637-0.745-0.96-1.637-0.96-2.666
		c0-1.03,0.323-1.932,0.96-2.704c0.638-0.768,1.491-1.157,2.559-1.157c1.068,0,1.944,0.377,2.62,1.122
		c0.676,0.749,1.014,1.66,1.014,2.739C252.242,365.755,251.912,366.658,251.243,367.38z"/>
	<rect x="258.714" y="358.861" style="fill:#FFFFFF;" width="2.642" height="12.559"/>
	<path style="fill:#FFFFFF;" d="M260.057,353.526c-0.453,0-0.853,0.165-1.183,0.496c-0.331,0.33-0.492,0.722-0.492,1.18
		c0,0.457,0.161,0.849,0.492,1.179c0.33,0.331,0.73,0.496,1.183,0.496c0.453,0,0.853-0.165,1.183-0.496
		c0.33-0.33,0.492-0.722,0.492-1.179c0-0.457-0.162-0.849-0.492-1.18C260.91,353.692,260.51,353.526,260.057,353.526z"/>
	<path style="fill:#FFFFFF;" d="M275.44,359.992c-0.876-0.864-2.021-1.298-3.435-1.298c-0.868,0-1.675,0.223-2.42,0.66
		c-0.753,0.442-1.337,1.049-1.76,1.818v-2.29h-2.643v12.559h2.643v-6.796c0-1.168,0.338-2.052,1.014-2.659
		c0.676-0.603,1.468-0.907,2.382-0.907c1.921,0,2.882,1.157,2.882,3.469v6.893h2.643v-7.695
		C276.746,362.109,276.308,360.857,275.44,359.992z"/>
</g>
<g>
	<rect x="125.875" y="135.429" style="fill:#D5D6DB;" width="166.738" height="10.24"/>
	<rect x="128.41" y="244.731" style="fill:#D5D6DB;" width="5.12" height="19.753"/>
	
		<rect x="121.069" y="252.058" transform="matrix(-0.8661 0.4999 -0.4999 -0.8661 371.6427 409.6721)" style="fill:#D5D6DB;" width="19.753" height="5.12"/>
	
		<rect x="128.397" y="244.723" transform="matrix(-0.5001 0.866 -0.866 -0.5001 416.9242 268.5127)" style="fill:#D5D6DB;" width="5.12" height="19.753"/>
	<rect x="164.045" y="244.731" style="fill:#D5D6DB;" width="5.12" height="19.753"/>
	
		<rect x="156.756" y="252.071" transform="matrix(-0.8661 0.4999 -0.4999 -0.8661 438.243 391.856)" style="fill:#D5D6DB;" width="19.753" height="5.12"/>
	
		<rect x="164.056" y="244.752" transform="matrix(-0.5001 0.866 -0.866 -0.5001 470.4405 237.6775)" style="fill:#D5D6DB;" width="5.12" height="19.753"/>
	<rect x="199.731" y="244.731" style="fill:#D5D6DB;" width="5.12" height="19.753"/>
	
		<rect x="192.426" y="252.056" transform="matrix(-0.8661 0.4999 -0.4999 -0.8661 504.7993 373.9955)" style="fill:#D5D6DB;" width="19.753" height="5.12"/>
	
		<rect x="199.75" y="244.732" transform="matrix(-0.5001 0.866 -0.866 -0.5001 523.9677 206.7371)" style="fill:#D5D6DB;" width="5.12" height="19.753"/>
	<rect x="235.402" y="244.731" style="fill:#D5D6DB;" width="5.12" height="19.753"/>
	
		<rect x="228.087" y="252.043" transform="matrix(-0.8661 0.4999 -0.4999 -0.8661 571.3391 356.1445)" style="fill:#D5D6DB;" width="19.753" height="5.12"/>
	
		<rect x="235.404" y="244.728" transform="matrix(-0.5001 0.866 -0.866 -0.5001 577.4457 175.8481)" style="fill:#D5D6DB;" width="5.12" height="19.753"/>
	<rect x="271.073" y="244.731" style="fill:#D5D6DB;" width="5.12" height="19.753"/>
	
		<rect x="263.736" y="252.066" transform="matrix(-0.8661 0.4999 -0.4999 -0.8661 637.8732 338.3666)" style="fill:#D5D6DB;" width="19.753" height="5.12"/>
	
		<rect x="271.06" y="244.734" transform="matrix(-0.5001 0.866 -0.866 -0.5001 630.9388 144.9869)" style="fill:#D5D6DB;" width="5.12" height="19.753"/>
</g>
<g>
</g>
<g>
</g>
<g>
</g>
<g>
</g>
<g>
</g>
<g>
</g>
<g>
</g>
<g>
</g>
<g>
</g>
<g>
</g>
<g>
</g>
<g>
</g>
<g>
</g>
<g>
</g>
<g>
</g>
</svg>
