<?xml version="1.0" encoding="utf-8"?>
<!-- Generator: Adobe Illustrator 16.0.0, SVG Export Plug-In . SVG Version: 6.00 Build 0)  -->
<!DOCTYPE svg PUBLIC "-//W3C//DTD SVG 1.1//EN" "http://www.w3.org/Graphics/SVG/1.1/DTD/svg11.dtd">
<svg version="1.1" id="Layer_1" xmlns="http://www.w3.org/2000/svg" xmlns:xlink="http://www.w3.org/1999/xlink" x="0px" y="0px"
	 width="1178px" height="540px" viewBox="0 0 1178 540" enable-background="new 0 0 1178 540" xml:space="preserve">
<rect x="-103.875" y="-53.893" fill="#FFFFFF" width="1555.422" height="859.457"/>
<path fill="#FFFFFF" stroke="#6E293D" stroke-width="26" stroke-miterlimit="10" d="M991.754,107.752"/>
<path fill="#FFFFFF" stroke="#6E293D" stroke-width="26" stroke-miterlimit="10" d="M1122.284,184.64
	c39.96,72.091,13.914,162.925-58.176,202.886c-72.09,39.959-162.924,13.913-202.885-58.178
	c-39.961-72.09-13.914-162.925,58.176-202.885"/>
<path fill="#FFFFFF" stroke="#6E293D" stroke-width="18.2" stroke-miterlimit="10" d="M1090.341,291.644
	c-14.293,40.666-53.035,69.82-98.587,69.82s-84.293-29.152-98.586-69.817"/>
<path fill="#FFFFFF" stroke="#6E293D" stroke-width="18.2" stroke-miterlimit="10" d="M891.712,226.809
	c12.95-42.98,52.84-74.283,100.042-74.284s87.091,31.303,100.042,74.282"/>
<g>
	<path d="M923.507,242.26h5.624c1.697,0,3.395,0,5.092,0s3.407-0.024,5.131-0.076c-0.203,2.027-0.603,3.883-1.197,5.567
		c-0.596,1.686-1.35,3.249-2.261,4.693c1.089,1.267,2.317,2.413,3.686,3.438c1.368,1.026,2.698,1.856,3.99,2.489l-2.851,3.306
		c-2.659-1.443-5.092-3.444-7.296-6.004c-1.267,1.343-2.673,2.56-4.218,3.648c-1.546,1.089-3.23,2.09-5.054,3.002l-3.04-3.344
		c1.95-0.887,3.68-1.855,5.187-2.907c1.507-1.051,2.793-2.134,3.857-3.249c1.063-1.114,1.899-2.242,2.508-3.382
		c0.608-1.141,0.988-2.242,1.14-3.307c-1.063,0.052-2.108,0.076-3.135,0.076s-2.071,0-3.135,0h-4.028V242.26z M951.095,274.674
		h-22.724v-10.45h4.75v6.46h17.974V274.674z M940.113,253.318v-4.028h5.586v-9.158h4.712v25.765h-4.712v-12.578H940.113z"/>
	<path d="M974.465,267.53h-4.826v-6.612h-14.972v-3.952h33.288v3.952h-13.49V267.53z M983.889,274.826h-23.978V264.11h4.636v6.726
		h19.342V274.826z M960.101,254.078v-12.996h22.648v12.996H960.101z M977.999,250.278v-5.282h-13.186v5.282H977.999z"/>
	<path d="M1011.363,263.73c0.101-0.127,0.215-0.152,0.342-0.076c0.126,0.076,0.19,0.189,0.19,0.342v4.826
		c-1.318,1.14-2.769,1.963-4.352,2.47s-3.287,0.76-5.111,0.76c-2.077,0-3.933-0.349-5.566-1.045
		c-1.634-0.697-3.021-1.696-4.161-3.002c-1.14-1.305-2.008-2.882-2.604-4.73c-0.595-1.85-0.893-3.927-0.893-6.232
		c0-2.356,0.348-4.465,1.045-6.327c0.696-1.862,1.653-3.438,2.869-4.73s2.66-2.28,4.332-2.965c1.672-0.684,3.482-1.025,5.434-1.025
		c1.875,0,3.509,0.196,4.902,0.589c1.393,0.393,2.685,1.121,3.876,2.185v4.788c0,0.152-0.063,0.267-0.19,0.343
		c-0.127,0.075-0.24,0.051-0.342-0.076c-1.216-1.368-2.47-2.35-3.762-2.945c-1.292-0.595-2.698-0.893-4.218-0.893
		c-1.292,0-2.483,0.234-3.572,0.702c-1.09,0.47-2.033,1.159-2.831,2.071s-1.425,2.046-1.881,3.401s-0.684,2.933-0.684,4.73
		c0,3.75,0.746,6.536,2.241,8.36s3.687,2.736,6.574,2.736c1.596,0,3.091-0.374,4.484-1.121
		C1008.88,266.118,1010.172,265.073,1011.363,263.73z"/>
	<path d="M1034.125,271.71h-18.62v-29.374h18.62v3.99h-13.87v7.448h12.92v3.951h-12.92v9.994h13.87V271.71z"/>
	<path d="M1048.717,272.052c-2.027,0-3.838-0.387-5.435-1.159c-1.596-0.772-2.944-1.829-4.047-3.173
		c-1.102-1.342-1.938-2.926-2.508-4.75c-0.57-1.823-0.855-3.787-0.855-5.89s0.285-4.072,0.855-5.909
		c0.57-1.836,1.406-3.433,2.508-4.788c1.103-1.354,2.451-2.425,4.047-3.211c1.597-0.785,3.407-1.178,5.435-1.178
		c2.052,0,3.876,0.393,5.472,1.178c1.596,0.786,2.945,1.856,4.047,3.211c1.103,1.355,1.944,2.952,2.527,4.788
		c0.582,1.837,0.874,3.807,0.874,5.909s-0.292,4.066-0.874,5.89c-0.583,1.824-1.425,3.408-2.527,4.75
		c-1.102,1.344-2.451,2.4-4.047,3.173S1050.769,272.052,1048.717,272.052z M1048.717,268.024c1.316,0,2.47-0.267,3.458-0.799
		c0.987-0.531,1.817-1.285,2.488-2.261c0.672-0.975,1.179-2.134,1.521-3.477s0.513-2.825,0.513-4.446s-0.171-3.109-0.513-4.465
		s-0.849-2.514-1.521-3.478c-0.671-0.962-1.501-1.716-2.488-2.261c-0.988-0.544-2.142-0.816-3.458-0.816
		c-1.292,0-2.433,0.272-3.42,0.816c-0.988,0.545-1.818,1.299-2.489,2.261c-0.672,0.964-1.172,2.122-1.501,3.478
		c-0.33,1.355-0.494,2.844-0.494,4.465s0.164,3.104,0.494,4.446c0.329,1.343,0.829,2.502,1.501,3.477
		c0.671,0.976,1.501,1.729,2.489,2.261C1046.284,267.758,1047.425,268.024,1048.717,268.024z"/>
</g>
<path fill="#FFFFFF" stroke="#6E293D" stroke-width="26" stroke-miterlimit="10" d="M189.245,107.752"/>
<path fill="#FFFFFF" stroke="#054366" stroke-width="26" stroke-miterlimit="10" d="M189.245,107.752
	c82.424,0,149.242,66.818,149.242,149.243c0,82.423-66.818,149.242-149.242,149.242c-82.425,0-149.243-66.818-149.243-149.242"/>
<path fill="#FFFFFF" stroke="#255F88" stroke-width="18.2" stroke-miterlimit="10" d="M287.832,291.644
	c-14.292,40.666-53.035,69.82-98.587,69.82c-45.551,0-84.293-29.152-98.586-69.817"/>
<path fill="#FFFFFF" stroke="#255F88" stroke-width="18.2" stroke-miterlimit="10" d="M89.203,226.809
	c12.95-42.98,52.84-74.283,100.042-74.284c47.201,0,87.091,31.303,100.042,74.282"/>
<g>
	<path d="M150.409,270.266h-32.604v-3.914h11.286v-11.134h4.75v11.134h16.568V270.266z M143.493,263.274h-4.826
		c0.734-2.787,1.285-5.567,1.653-8.342c0.367-2.773,0.576-5.363,0.627-7.771h-18.354v-4.028h23.142
		c-0.025,1.647-0.102,3.344-0.228,5.092c-0.127,1.748-0.285,3.496-0.475,5.244s-0.418,3.452-0.684,5.111
		S143.797,261.805,143.493,263.274z"/>
	<path d="M163.215,245.642c-0.76,0.052-1.691,0.076-2.793,0.076s-2.337,0-3.705,0h-2.66v-3.8h4.788c1.495,0,2.964,0,4.408,0
		c1.444,0,3.103-0.025,4.978-0.076c-0.051,2.18-0.406,4.225-1.064,6.137c-0.659,1.913-1.59,3.668-2.793,5.264
		s-2.66,3.009-4.37,4.236c-1.71,1.229-3.629,2.262-5.757,3.098l-2.774-3.42c1.773-0.583,3.35-1.298,4.731-2.147
		c1.381-0.849,2.565-1.772,3.553-2.773c0.988-1.001,1.773-2.064,2.356-3.192C162.695,247.916,163.063,246.782,163.215,245.642z
		 M177.161,275.434v-9.044h-19.076v-3.876h23.75v12.92H177.161z M181.835,261.032h-4.56v-8.17h-2.698v8.17h-4.56v-20.521h4.56v8.55
		h2.698v-8.93h4.56V261.032z"/>
	<path d="M212.729,262.286c3.217,0.228,5.655,0.925,7.315,2.09c1.659,1.166,2.489,2.66,2.489,4.484c0,2.026-1.033,3.66-3.097,4.901
		c-2.065,1.241-5.061,1.862-8.987,1.862c-3.978,0-6.986-0.621-9.025-1.862c-2.04-1.241-3.059-2.875-3.059-4.901
		c0-1.799,0.817-3.274,2.451-4.428c1.634-1.152,4.009-1.855,7.125-2.108v-3.078h-14.136v-3.838h33.288v3.838h-14.364V262.286z
		 M199.163,241.12h11.628c1.52,0,3.002,0,4.446,0c1.444,0,2.989-0.025,4.636-0.076c0.836,0,1.102,0.469,0.798,1.406
		c-0.355,1.063-0.988,2.084-1.9,3.059c-0.912,0.976-2.052,1.907-3.42,2.793c1.494,0.532,3.065,0.988,4.712,1.368
		c1.646,0.38,3.344,0.697,5.092,0.95l-1.634,3.382c-2.179-0.405-4.269-0.893-6.27-1.463c-2.001-0.57-3.939-1.285-5.814-2.147
		c-1.9,0.836-3.978,1.571-6.232,2.204c-2.255,0.634-4.636,1.128-7.144,1.482l-1.748-3.445c2.508-0.324,4.744-0.725,6.707-1.2
		c1.963-0.475,3.673-0.981,5.13-1.519c1.457-0.537,2.66-1.081,3.61-1.631c0.95-0.55,1.666-1.067,2.147-1.553v-0.038
		c-1.368,0.051-2.717,0.095-4.047,0.133s-2.679,0.057-4.047,0.057h-6.65V241.12z M210.449,265.82c-1.343,0-2.47,0.082-3.382,0.247
		s-1.647,0.393-2.204,0.684c-0.557,0.292-0.957,0.621-1.197,0.988c-0.241,0.367-0.361,0.741-0.361,1.121
		c0,0.405,0.12,0.792,0.361,1.158c0.24,0.367,0.64,0.697,1.197,0.988s1.292,0.525,2.204,0.703c0.912,0.177,2.039,0.266,3.382,0.266
		c1.342,0,2.47-0.089,3.382-0.266c0.912-0.178,1.646-0.412,2.204-0.703c0.557-0.291,0.956-0.621,1.197-0.988
		c0.241-0.366,0.361-0.753,0.361-1.158c0-0.38-0.12-0.754-0.361-1.121c-0.241-0.367-0.64-0.696-1.197-0.988
		c-0.558-0.291-1.292-0.519-2.204-0.684S211.791,265.82,210.449,265.82z"/>
	<path d="M242.064,240.93c0.05,1.141,0.013,2.236-0.114,3.287c-0.127,1.052-0.317,2.059-0.57,3.021
		c1.039,1.875,2.299,3.471,3.781,4.788s3.363,2.508,5.643,3.571l-2.888,3.116c-1.85-0.836-3.464-1.817-4.845-2.945
		c-1.381-1.127-2.603-2.412-3.667-3.856c-0.988,1.672-2.21,3.154-3.667,4.446c-1.457,1.292-3.097,2.419-4.921,3.382l-3.154-2.889
		c1.697-0.937,3.173-1.938,4.427-3.002c1.254-1.063,2.273-2.235,3.059-3.515c0.785-1.279,1.349-2.691,1.691-4.237
		c0.342-1.545,0.45-3.268,0.323-5.168H242.064z M257.34,274.826h-22.344v-14.061h22.344V274.826z M252.628,264.642h-12.996v6.347
		h12.996V264.642z M252.628,240.132h4.712v19.152h-4.712V240.132z"/>
</g>
<path fill="#FFFFFF" stroke="#6E293D" stroke-width="26" stroke-miterlimit="10" d="M589,107.752"/>
<path fill="#FFFFFF" stroke="#83BA72" stroke-width="26" stroke-miterlimit="10" d="M503.397,379.246
	c-67.518-47.275-83.927-140.336-36.65-207.854c47.276-67.518,140.336-83.927,207.854-36.65
	c67.518,47.277,83.927,140.336,36.65,207.854"/>
<path fill="#FFFFFF" stroke="#8AB589" stroke-width="18.2" stroke-miterlimit="10" d="M687.586,291.644
	c-14.292,40.666-53.034,69.82-98.586,69.82c-45.551,0-84.293-29.152-98.586-69.817"/>
<path fill="#FFFFFF" stroke="#8AB589" stroke-width="18.2" stroke-miterlimit="10" d="M488.958,226.809
	c12.95-42.98,52.84-74.283,100.042-74.284s87.09,31.303,100.042,74.282"/>
<g>
	<path d="M540.436,246.326h6.004v-6.194h4.712v25.802h-4.712v-8.436h-6.004v3.496h-16.568v-19.798h4.636v6.231h7.41v-6.231h4.522
		V246.326z M535.914,251.304h-7.41v5.814h7.41V251.304z M551.835,274.674h-22.724v-10.107h4.75v6.117h17.974V274.674z
		 M540.436,253.698h6.042v-3.61h-6.042V253.698z"/>
	<path d="M574.863,257.194c0,1.443-0.488,2.704-1.463,3.78c-0.976,1.077-2.4,1.793-4.275,2.147v2.812
		c1.57-0.101,3.122-0.209,4.655-0.322c1.533-0.114,3.008-0.272,4.427-0.476v3.763c-1.343,0.202-2.762,0.374-4.256,0.513
		c-1.495,0.14-3.021,0.253-4.579,0.342s-3.104,0.158-4.636,0.209s-2.996,0.076-4.389,0.076h-4.94v-3.876h4.902
		c0.633,0,1.286,0,1.957,0c0.671,0,1.374-0.013,2.109-0.038v-2.964c-1.976-0.329-3.471-1.039-4.484-2.128
		c-1.014-1.089-1.52-2.369-1.52-3.838c0-0.861,0.177-1.659,0.532-2.395c0.354-0.734,0.88-1.38,1.577-1.938
		c0.696-0.558,1.558-0.994,2.584-1.312c1.026-0.316,2.21-0.475,3.553-0.475c1.317,0,2.489,0.158,3.515,0.475
		c1.026,0.317,1.894,0.754,2.603,1.312c0.709,0.558,1.241,1.203,1.596,1.938C574.686,255.535,574.863,256.333,574.863,257.194z
		 M556.016,250.164v-3.648h21.052v3.648H556.016z M560.5,244.844v-3.724h12.084v3.724H560.5z M570.456,257.194
		c0-0.734-0.292-1.368-0.874-1.9c-0.583-0.532-1.571-0.798-2.964-0.798c-1.419,0-2.413,0.266-2.983,0.798
		c-0.57,0.532-0.855,1.166-0.855,1.9c0,0.76,0.285,1.405,0.855,1.938c0.57,0.532,1.564,0.798,2.983,0.798
		c1.393,0,2.381-0.266,2.964-0.798C570.164,258.6,570.456,257.954,570.456,257.194z M588.81,258.6h-5.13v16.759h-4.522v-35.227
		h4.522v14.517h5.13V258.6z"/>
	<path d="M608.228,262.286c3.217,0.228,5.655,0.925,7.315,2.09c1.658,1.166,2.488,2.66,2.488,4.484c0,2.026-1.032,3.66-3.097,4.901
		c-2.065,1.241-5.061,1.862-8.987,1.862c-3.977,0-6.986-0.621-9.025-1.862s-3.059-2.875-3.059-4.901
		c0-1.799,0.817-3.274,2.451-4.428c1.635-1.152,4.01-1.855,7.125-2.108v-3.078h-14.136v-3.838h33.288v3.838h-14.364V262.286z
		 M594.662,241.12h11.627c1.521,0,3.002,0,4.446,0s2.989-0.025,4.636-0.076c0.836,0,1.103,0.469,0.799,1.406
		c-0.355,1.063-0.988,2.084-1.9,3.059c-0.912,0.976-2.053,1.907-3.42,2.793c1.494,0.532,3.064,0.988,4.712,1.368
		c1.646,0.38,3.344,0.697,5.092,0.95l-1.634,3.382c-2.18-0.405-4.27-0.893-6.27-1.463c-2.002-0.57-3.939-1.285-5.814-2.147
		c-1.9,0.836-3.978,1.571-6.232,2.204c-2.255,0.634-4.636,1.128-7.144,1.482l-1.748-3.445c2.508-0.324,4.743-0.725,6.707-1.2
		c1.963-0.475,3.673-0.981,5.13-1.519s2.66-1.081,3.609-1.631c0.951-0.55,1.666-1.067,2.147-1.553v-0.038
		c-1.368,0.051-2.717,0.095-4.047,0.133s-2.679,0.057-4.047,0.057h-6.649V241.12z M605.947,265.82c-1.343,0-2.47,0.082-3.382,0.247
		s-1.647,0.393-2.204,0.684c-0.557,0.292-0.957,0.621-1.197,0.988s-0.36,0.741-0.36,1.121c0,0.405,0.12,0.792,0.36,1.158
		c0.24,0.367,0.641,0.697,1.197,0.988s1.292,0.525,2.204,0.703c0.912,0.177,2.039,0.266,3.382,0.266s2.471-0.089,3.383-0.266
		c0.912-0.178,1.646-0.412,2.203-0.703s0.956-0.621,1.197-0.988c0.24-0.366,0.361-0.753,0.361-1.158c0-0.38-0.121-0.754-0.361-1.121
		c-0.241-0.367-0.641-0.696-1.197-0.988c-0.557-0.291-1.291-0.519-2.203-0.684S607.29,265.82,605.947,265.82z"/>
	<path d="M637.563,240.93c0.05,1.141,0.013,2.236-0.114,3.287c-0.127,1.052-0.316,2.059-0.57,3.021
		c1.039,1.875,2.3,3.471,3.781,4.788c1.482,1.317,3.363,2.508,5.644,3.571l-2.888,3.116c-1.85-0.836-3.465-1.817-4.846-2.945
		c-1.381-1.127-2.604-2.412-3.667-3.856c-0.987,1.672-2.21,3.154-3.667,4.446s-3.097,2.419-4.921,3.382l-3.153-2.889
		c1.696-0.937,3.172-1.938,4.426-3.002c1.254-1.063,2.273-2.235,3.06-3.515c0.785-1.279,1.349-2.691,1.69-4.237
		c0.343-1.545,0.45-3.268,0.324-5.168H637.563z M652.84,274.826h-22.344v-14.061h22.344V274.826z M648.127,264.642h-12.996v6.347
		h12.996V264.642z M648.127,240.132h4.713v19.152h-4.713V240.132z"/>
</g>
</svg>
