<?xml version="1.0" encoding="utf-8"?>
<!-- Generator: Adobe Illustrator 16.0.0, SVG Export Plug-In . SVG Version: 6.00 Build 0)  -->
<!DOCTYPE svg PUBLIC "-//W3C//DTD SVG 1.1//EN" "http://www.w3.org/Graphics/SVG/1.1/DTD/svg11.dtd">
<svg version="1.1" id="Layer_1" xmlns="http://www.w3.org/2000/svg" xmlns:xlink="http://www.w3.org/1999/xlink" x="0px" y="0px"
	 width="1178px" height="540px" viewBox="0 0 1178 540" enable-background="new 0 0 1178 540" xml:space="preserve">
<ellipse fill="#FFFFFF" stroke="#994747" stroke-width="16.1" stroke-miterlimit="10" cx="675.337" cy="336.838" rx="899.205" ry="593.22"/>
<path fill="#FFFFFF" stroke="#233C56" stroke-width="23" stroke-miterlimit="10" d="M193.078,285.117
	c-67.514,0-122.244-54.731-122.244-122.245c0-67.513,54.73-122.244,122.244-122.244c67.513,0,122.244,54.73,122.244,122.244"/>
<path fill="#FFFFFF" stroke="#231F20" stroke-width="23" stroke-miterlimit="10" d="M315.322,162.873"/>
<path fill="#FFFFFF" stroke="#494949" stroke-width="23" stroke-miterlimit="10" d="M458.717,256.583"/>
<path fill="#FFFFFF" stroke="#494949" stroke-width="23" stroke-miterlimit="10" d="M458.717,256.583"/>
<path fill="#FFFFFF" stroke="#494949" stroke-width="23" stroke-miterlimit="10" d="M315.322,162.873"/>
<path fill="#FFFFFF" stroke="#494949" stroke-width="23" stroke-miterlimit="10" d="M336.473,378.827"/>
<circle fill="none" stroke="#5088BC" stroke-width="16.1" stroke-miterlimit="10" cx="458.717" cy="378.828" r="85.571"/>
<text transform="matrix(1 0 0 1 414.4106 389.3721)" stroke="#494949" font-family="'NanumBarunGothic'" font-size="38">2002</text>
<path fill="#FFFFFF" stroke="#231F20" stroke-width="23" stroke-miterlimit="10" d="M193.078,285.117"/>
<circle fill="#FFFFFF" stroke="#231F20" stroke-width="16.1" stroke-miterlimit="10" cx="193.078" cy="162.873" r="85.571"/>
<text transform="matrix(1 0 0 1 148.7715 173.4175)" font-family="'NanumBarunGothic'" font-size="38">1997</text>
<g>
	<path fill="#FFFFFF" stroke="#494949" stroke-width="23" stroke-miterlimit="10" d="M998.164,256.583"/>
	<path fill="none" stroke="#233C56" stroke-width="23" stroke-miterlimit="10" d="M193.078,285.117
		c108.459,0,143.395,95.216,143.395,95.216c8.194,76.334,54.73,120.739,122.244,120.739c67.513,0,122.244-54.731,122.244-122.245
		c0,0,32.284-93.71,145.496-93.71c143.455,0,149.463,93.71,149.463,93.71c0,67.514,54.73,122.245,122.244,122.245
		c67.513,0,122.243-54.731,122.243-122.245c0-67.513-54.73-122.244-122.243-122.244c0,0-149.464,0.161-149.464-93.711"/>
	<circle fill="#FFFFFF" stroke="#494949" stroke-width="16.1" stroke-miterlimit="10" cx="998.164" cy="378.828" r="85.571"/>
	<text transform="matrix(1 0 0 1 953.8555 389.3721)" stroke="#494949" font-family="'NanumBarunGothic'" font-size="38">2015</text>
</g>
<g>
	<path fill="#FFFFFF" stroke="#231F20" stroke-width="23" stroke-miterlimit="10" d="M604.212,162.872"/>
	<path fill="none" stroke="#233C56" stroke-width="23" stroke-miterlimit="10" d="M848.7,162.872
		c0-67.513-54.73-122.244-122.243-122.244c-67.514,0-122.245,54.731-122.245,122.244c0,0-20.384,93.711-145.495,93.711
		c0,0-143.396-27.576-143.396-93.711"/>
	<circle fill="none" stroke="#994747" stroke-width="16.1" stroke-miterlimit="10" cx="726.457" cy="162.873" r="85.571"/>
	<text transform="matrix(1 0 0 1 682.1484 173.417)" font-family="'NanumBarunGothic'" font-size="38">2009</text>
</g>
</svg>
