<?xml version="1.0" encoding="utf-8"?>
<!-- Generator: Adobe Illustrator 16.0.0, SVG Export Plug-In . SVG Version: 6.00 Build 0)  -->
<!DOCTYPE svg PUBLIC "-//W3C//DTD SVG 1.1//EN" "http://www.w3.org/Graphics/SVG/1.1/DTD/svg11.dtd">
<svg version="1.1" id="Layer_1" xmlns="http://www.w3.org/2000/svg" xmlns:xlink="http://www.w3.org/1999/xlink" x="0px" y="0px"
	 width="715.422px" height="283.777px" viewBox="0 0 715.422 283.777" enable-background="new 0 0 715.422 283.777"
	 xml:space="preserve">
<g>
	<path fill-rule="evenodd" clip-rule="evenodd" fill="#B42F1F" stroke="#2E2418" stroke-width="3" stroke-miterlimit="10" d="
		M279.483,259.953c-3.236-1.616-6.473-3.231-9.709-4.847c2.275-2.48,0.346-4.603-0.537-6.854
		c-6.513-16.585-14.683-32.521-19.539-49.757c6.371-13.171,11.705-0.663,14.62,1.867c15.948,13.853,23.665,12.649,33.455-6.165
		c17.489-33.605,30.362-69.392,48.688-102.593c10.562-5.828,20.926-7.369,30.816,1.42c-0.608,6.886,1.45,9.491,8.077,5.162
		c1.757-1.148,3.746-1.939,5.628-2.895c4.271,2.434,9.95,3.859,12.548,7.49c7.78,10.876,13.997,3.206,20.762-0.569l-0.351-0.267
		c1.391,0.652,2.427,0.226,3.183-1.049l-0.175,0.352c1.245,0.439,2.492,0.879,3.738,1.319c5.375,8.751,9.682,11.117,20.541,11.658
		c2.479,0.124,4.927,0.867,7.389,1.326c4.135,5.868,8.887,9.398,16.877,7.239c4.774-1.291,9.571,1.062,13.729,3.894l-0.001,0.206
		c-0.624,1.192-0.356,2.091,0.875,2.677c-0.441,1.444-0.883,2.89-1.325,4.335c-1.893,3.435-3.473,7.093-5.727,10.27
		c-31.285,44.091-62.721,88.074-93.937,132.215c-3.598,5.088-7.099,7.008-13.513,5.254c-19.485-5.329-39.036-10.538-58.787-14.735
		C304.453,264.281,292.59,258.606,279.483,259.953z"/>
	<path fill-rule="evenodd" clip-rule="evenodd" fill="#DABB8A" d="M471.505,35.629c3.148,8.963-0.263,16.686-4.862,24.004
		c-4.902,7.803-2.849,16.047,2.653,20.768c7.148,6.133,7.982,15.766,14.902,21.553c0.911,0.763,0.282,3.365,0.364,5.118
		c-8.716-7.971-18.95-11.326-30.764-11.288c-2.48,0.008-5.802-3.222-7.256-5.796c-1.909-3.381,2.317-3.65,4.168-4.787
		c3.667-2.252,2.57-3.934,1.116-7.535c-3.738-9.25-12.668-1.791-17.588-6.49c-1.307-1.247-5.313,2.88-5.722-1.701
		c-0.216-2.4,1.292-5.006,3.789-6.105c1.985-0.875,4.09-1.374,5.252-3.437c3.227,1.204,6.218,1.338,7.924-2.316
		c0.293-0.626-0.302-2.424-0.7-2.497c-3.228-0.585-4.843,1.9-6.673,3.9c-0.231,0.253-0.378,0.583-0.563,0.876
		c-8.766-4.031-8.962-9.239-2.12-15.417c4.437,2.232,8.627,4.048,11.21-2.563c2.657-6.803,9.743-7.906,15.16-11.134
		C465.032,32.398,468.269,34.014,471.505,35.629z M461.168,41.94c-2.696,5.401-4.986,9.877-7.166,14.405
		c-0.997,2.073-1.275,4.61,0.61,5.986c2.584,1.885,3.214-1.413,4.814-2.42C467.124,55.069,467.975,49.538,461.168,41.94z"/>
	<path fill-rule="evenodd" clip-rule="evenodd" fill="#DABB8A" d="M300.667,3.713c5.325,1.79,11.514-8.029,16.289,1.207
		c-3.735,1.174-7.476,2.35-11.213,3.525c-8.685,1.756-4.48,10.928-8.756,15.221c-1.358-1.474-2.717-2.947-4.075-4.419
		C295.497,14.069,298.082,8.891,300.667,3.713z"/>
	<path fill-rule="evenodd" clip-rule="evenodd" fill="#DABB8A" d="M490.58,113.59c4.848,0.734,5.919,5.134,8.156,8.4
		c-1.615,3.236-3.23,6.473-4.846,9.708c-1.706,0.735-3.412,1.47-5.118,2.204c0.442-1.446,0.884-2.892,1.325-4.336
		c-0.291-0.892-0.582-1.783-0.875-2.677l0.001-0.205C492.391,122.602,489.089,117.848,490.58,113.59z"/>
	<path fill-rule="evenodd" clip-rule="evenodd" fill="#C6533C" stroke="#2E2418" stroke-width="3" stroke-miterlimit="10" d="
		M296.987,23.667c4.275-4.293,0.071-13.465,8.754-15.221c1.605,1.263,3.213,2.527,4.821,3.79c-2.271,5.342-0.578,8.901,4.849,10.78
		l-0.014,0.101c-0.51,1.193-0.187,2.077,0.982,2.648c-0.914,8.063,2.375,13.257,10.382,15.258c0.308,0.078,0.544,0.436,0.813,0.662
		l-0.027-0.066c-2.515,7.45-0.407,12.708,7.268,15.327c0.406,1.036,0.813,2.074,1.22,3.11c-2.073,8.646,2.405,11.968,10.223,12.575
		c0.614,1.933,1.229,3.865,1.844,5.798c-0.74,4.368-2.451,8.615-1.641,13.176c-18.325,33.201-31.198,68.988-48.688,102.593
		c-9.79,18.814-17.507,20.018-33.455,6.165c-2.915-2.53-8.249-15.039-14.62-1.867c-6.677-9.37-6.324-19.331-2.633-29.651
		c14.023-39.194,28.003-78.404,41.998-117.606c0.872-1.135,0.816-2.169-0.336-3.084c0,0,0.08-0.041,0.077-0.04
		c0.916-1.647,0.675-3.141-0.601-4.499C290.77,36.806,296.191,31.254,296.987,23.667z"/>
	<path fill-rule="evenodd" clip-rule="evenodd" fill="#D8AE7C" d="M346.461,91.604c-0.811-4.562,0.9-8.808,1.641-13.177
		c2.079,0.874,4.785,1.694,6.157-0.017c6.777-8.451,13.603-2.19,20.233-0.175c1.881,0.57,3.195,2.933,5.509,1.005
		c-7.025-12.509-18.622-14.777-33.743-6.61c-7.817-0.607-12.296-3.93-10.224-12.575c6.883,4.197,13.051,7.063,19.079-2.144
		c3.123-4.769,9.279-3.655,13.771-0.676c6.15,4.078,11.776,1.85,17.407-0.584c2.448-1.057,5.98-2.226,4.886-5.982
		c-1.017-3.489-4.156-4.065-7.026-2.509c-5.945,3.221-6.378-2.688-6.895-4.969c-1.262-5.582,3.603-3.031,6.254-3.941
		c6.24-2.143,8.921,3.384,13.274,5.195c-0.69,3.784-1.382,7.567-2.039,11.171c6.629,1.122,10.79-1.682,12.471-8.192
		c2.763,1.042,4.954,2.645,6.215,5.481c1.228,2.761,3.522,5.401,6.497,4.259c3.557-1.364,2.923-5.652,2.365-8.401
		c-0.618-3.04-3.232-5.728,0.683-8.256l0.004-0.001c1.677,0.804,3.34,1.153,4.952-0.15c2.499,1.374,4.998,2.748,7.496,4.122
		c-6.845,6.178-6.648,11.386,2.117,15.417l0.013,0.037c-1.162,2.063-3.267,2.561-5.252,3.437c-2.497,1.1-4.005,3.705-3.789,6.105
		c0.409,4.581,4.415,0.455,5.722,1.701c4.92,4.699,13.85-2.76,17.588,6.49c1.454,3.601,2.551,5.283-1.116,7.535
		c-1.851,1.136-6.077,1.405-4.168,4.787c1.454,2.575,4.775,5.804,7.256,5.796c11.813-0.038,22.048,3.317,30.764,11.288
		c0.583,0.509,1.164,1.022,1.743,1.533c0.385,0.734,0.771,1.472,1.157,2.208c1.041,0.923,2.082,1.847,3.121,2.774
		c-1.495,4.261,1.807,9.015-1.36,13.098c-4.158-2.833-8.955-5.186-13.729-3.895c-7.99,2.159-12.742-1.371-16.877-7.239
		c5.259,0.937,4.688-5.541,8.445-6.648c1.368-0.402,2.63-1.794,1.521-3.262c-0.717-0.947-2.51-1.917-3.53-1.671
		c-14.028,3.364-22.046-5.584-29.93-14.56c-5.44-6.194-10.224-5.206-14.998,0.598l-0.044,0.015
		c-1.888-0.863-3.775-1.728-5.666-2.595c2.32-8.406,10.782-5.57,16.426-8.944c-3.39-1.692-6.503-3.246-9.615-4.799
		c-0.308-2.173-1.132-2.177-2.338-0.555c-1.161,1.501-1.385,4.377-4.211,3.429c-0.587-0.197-0.527-2.319-0.766-3.554
		c1.002-1.899,2.309-3.705,2.932-5.721c0.907-2.936-0.002-5.787-1.974-8.049c-1.336-1.532-3.25-1.319-4.91-0.266
		c-3.067,1.948-2.512,4.824-1.901,7.728c0.22,1.046,0.205,2.143,0.3,3.217c-4.003,4.569-2.144,8.576,2.285,12.017
		c-6.214,2.861-9.947-4.351-15.117-1.597c-6.671-3.074-11.532-2.528-13.569,5.829c-0.613,2.518-3.068,4.584-4.68,6.858
		C367.387,84.235,357.022,85.777,346.461,91.604z"/>
	<path fill-rule="evenodd" clip-rule="evenodd" fill="#D7A266" d="M420.125,90.009c4.774-5.804,9.558-6.792,14.998-0.598
		c7.884,8.976,15.901,17.923,29.93,14.56c1.021-0.246,2.813,0.724,3.53,1.671c1.109,1.467-0.152,2.859-1.521,3.262
		c-3.757,1.107-3.187,7.585-8.445,6.648c-2.462-0.458-4.91-1.202-7.389-1.326c-10.859-0.542-15.166-2.907-20.54-11.657
		c1.889-0.488,3.804-1.573,1.827-3.412c-2.532-2.352-4.457-0.645-5.566,2.092c0,0,0.175-0.352,0.174-0.35
		c-1.061,0.35-2.122,0.698-3.182,1.047c0,0,0.351,0.267,0.349,0.263c-4.318-3.252-5.552-9.649-11.487-11.25
		c0.534-1.176,1.075-2.352,1.615-3.526c1.888,0.863,3.775,1.728,5.663,2.591c0.204,0.279,0.407,0.56,0.611,0.84
		C420.503,90.579,420.313,90.294,420.125,90.009z"/>
	<path fill-rule="evenodd" clip-rule="evenodd" fill="#D8AE7C" d="M412.809,90.96c5.93,1.6,7.163,7.996,11.481,11.249
		c-6.763,3.779-12.979,11.449-20.76,0.573c-2.598-3.631-8.277-5.056-12.549-7.492c-0.192-3.573,0.847-6.505,4.254-8.21
		C401.366,87.133,406.331,92.468,412.809,90.96z"/>
	<path fill-rule="evenodd" clip-rule="evenodd" fill="#D7A266" d="M395.235,87.08c-3.407,1.706-4.446,4.638-4.254,8.21
		c-1.881,0.957-3.87,1.748-5.627,2.896c-6.627,4.329-8.686,1.725-8.077-5.162c1.61-2.274,4.065-4.341,4.679-6.859
		c2.037-8.357,6.898-8.903,13.573-5.828C395.434,82.584,395.334,84.832,395.235,87.08z"/>
	<path fill-rule="evenodd" clip-rule="evenodd" fill="#D8AE7C" d="M426.949,101.249c1.109-2.736,3.034-4.444,5.566-2.092
		c1.977,1.838,0.062,2.923-1.827,3.412C429.441,102.128,428.194,101.688,426.949,101.249z"/>
	<path fill-rule="evenodd" clip-rule="evenodd" fill="#D8AE7C" d="M489.223,126.89c0.293,0.894,0.584,1.785,0.875,2.677
		C488.866,128.981,488.599,128.082,489.223,126.89z"/>
	<path fill-rule="evenodd" clip-rule="evenodd" fill="#D8AE7C" d="M423.941,101.946c1.06-0.349,2.121-0.697,3.182-1.047
		C426.368,102.171,425.332,102.598,423.941,101.946z"/>
	<path fill-rule="evenodd" clip-rule="evenodd" fill="#DABB8A" d="M396.786,44.447c-4.354-1.813-7.035-7.339-13.275-5.196
		c-2.651,0.91-7.516-1.641-6.254,3.941c0.517,2.281,0.949,8.19,6.895,4.969c2.87-1.557,6.01-0.98,7.026,2.509
		c1.095,3.757-2.438,4.926-4.886,5.982c-5.631,2.434-11.257,4.662-17.407,0.584c-4.492-2.979-10.648-4.093-13.771,0.676
		c-6.028,9.206-12.196,6.34-19.079,2.144c-0.405-1.036-0.813-2.074-1.219-3.11c-0.577-5.984,3.238-14.05-7.268-15.327
		c0,0,0.027,0.066,0.028,0.065c4.675-10.479,11.815-5.788,18.644-3.032c-5.924,9.369,10.905,4.543,7.646,12.25
		c0.95,0.293,1.994,0.994,2.831,0.799c2.485-0.575,2.997-2.253,2.661-4.802c-1.064-8.058-7.038-8.063-12.968-8.307
		c2.155-6.357-1.198-7.923-6.765-9.105c-3.806-0.808-12.034-1.802-8.16-7.726c5.63-8.612-0.612-12.941-3.404-18.838
		c6.4-1.722,12.953-7.039,17.928,3.178c1.54,3.16,7.212,4.311,10.992,6.38c-1.876,3.514-4.015,6.951-0.31,10.714
		c2.039,2.072,4.011,1.021,5.849,0.104c8.216-4.103-1.76-7.063-0.744-10.75c6.843-2.696,12.464-2.259,18.3,3.515
		c4.394,4.347,11.017,5.989,17.369,7.666c5.445,1.438,12.055,2.624,14.631,9.275c-3.214,1.668-5.942-1.854-9.02-0.911
		c-4.216,1.29-9.791,2.057-4.36,8.417C398.059,41.822,397.421,43.134,396.786,44.447z"/>
	<path fill-rule="evenodd" clip-rule="evenodd" fill="#D8AE7C" d="M346.219,38.651c-6.827-2.755-13.968-7.447-18.643,3.032
		c-0.271-0.226-0.507-0.583-0.814-0.661c-8.007-2.001-11.296-7.195-10.382-15.258c-0.328-0.883-0.656-1.765-0.982-2.648
		c0,0,0.014-0.101,0.013-0.1c1.116-4.822,5.651-11.181-4.848-10.781c-1.608-1.263-3.216-2.526-4.821-3.79
		c3.739-1.175,7.479-2.351,11.215-3.525c1.354,0.511,2.709,1.02,4.064,1.529c3.93,2.094,5.348-0.641,6.709-3.487
		c0,0,0.327-0.045,0.329-0.043c2.794,5.9,9.036,10.229,3.406,18.841c-3.874,5.924,4.354,6.918,8.16,7.726
		c5.566,1.183,8.92,2.749,6.765,9.105L346.219,38.651z"/>
	<path fill-rule="evenodd" clip-rule="evenodd" fill="#DABB8A" d="M422.977,40.509c-3.915,2.528-1.301,5.216-0.683,8.256
		c0.558,2.749,1.191,7.037-2.365,8.401c-2.975,1.142-5.27-1.498-6.497-4.259c-1.261-2.837-3.452-4.439-6.212-5.482
		c-1.601-4.327,2.17-7.18,2.972-10.847c2.291,1.078,4.267,1.045,5.514-1.562C418.13,36.846,420.553,38.678,422.977,40.509z"/>
	<path fill-rule="evenodd" clip-rule="evenodd" fill="#D8AE7C" d="M361.775,12.547c-1.016,3.687,8.96,6.647,0.744,10.75
		c-1.838,0.917-3.81,1.969-5.849-0.104c-3.705-3.763-1.566-7.2,0.31-10.714C358.595,11.409,360.188,11.743,361.775,12.547z"/>
	<path fill-rule="evenodd" clip-rule="evenodd" fill="#D8AE7C" d="M415.705,35.015c-1.247,2.607-3.223,2.64-5.512,1.562
		c-4.893-1.792-8.652-0.268-11.498,3.933c-5.431-6.36,0.145-7.127,4.36-8.417c3.077-0.943,5.806,2.579,9.02,0.911
		C413.283,33.675,414.494,34.345,415.705,35.015z"/>
	<path fill-rule="evenodd" clip-rule="evenodd" fill="#DABB8A" d="M327.729,2.962c-1.361,2.846-2.779,5.582-6.709,3.487
		C322.49,3.811,324.591,2.386,327.729,2.962z"/>
	<path fill-rule="evenodd" clip-rule="evenodd" fill="#DABB8A" d="M427.933,40.357c-1.612,1.303-3.275,0.955-4.952,0.15
		C424.563,38.217,426.149,36.012,427.933,40.357z"/>
	<path fill-rule="evenodd" clip-rule="evenodd" fill="#DABB8A" d="M487.463,110.813c-0.387-0.736-0.772-1.474-1.157-2.208
		C486.692,109.342,487.077,110.078,487.463,110.813z"/>
	<path fill-rule="evenodd" clip-rule="evenodd" fill="#D8AE7C" d="M461.168,41.94c6.807,7.598,5.956,13.129-1.741,17.971
		c-1.601,1.008-2.23,4.306-4.814,2.42c-1.886-1.375-1.607-3.913-0.61-5.986C456.182,51.817,458.472,47.341,461.168,41.94z"/>
	<path fill-rule="evenodd" clip-rule="evenodd" fill="#D8AE7C" d="M437.546,59.896c0.186-0.293,0.332-0.623,0.563-0.876
		c1.83-2,3.445-4.485,6.673-3.9c0.398,0.073,0.993,1.871,0.7,2.497c-1.706,3.654-4.697,3.52-7.924,2.316L437.546,59.896z"/>
	<path fill-rule="evenodd" clip-rule="evenodd" fill="#DABB8A" d="M346.258,72.63c15.121-8.167,26.718-5.899,33.743,6.61
		c-2.313,1.928-3.628-0.435-5.509-1.005c-6.631-2.015-13.456-8.275-20.233,0.175c-1.372,1.711-4.078,0.891-6.157,0.017
		C347.487,76.495,346.872,74.563,346.258,72.63z"/>
	<path fill-rule="evenodd" clip-rule="evenodd" fill="#D8AE7C" d="M327.548,41.618c10.506,1.277,6.69,9.343,7.268,15.327
		C327.141,54.326,325.033,49.068,327.548,41.618z"/>
	<path fill-rule="evenodd" clip-rule="evenodd" fill="#D7A266" d="M310.563,12.235c10.499-0.399,5.964,5.959,4.848,10.781
		C309.984,21.136,308.291,17.577,310.563,12.235z"/>
	<path fill-rule="evenodd" clip-rule="evenodd" fill="#D7A266" d="M315.397,23.116c0.326,0.883,0.654,1.765,0.982,2.648
		C315.211,25.193,314.888,24.309,315.397,23.116z"/>
	<path fill-rule="evenodd" clip-rule="evenodd" fill="#DABB8A" d="M395.235,87.08c0.099-2.248,0.198-4.495,0.294-6.742
		c5.166-2.755,8.899,4.457,15.113,1.596c-4.429-3.441-6.288-7.447-2.284-12.019c1.852,1.029,3.701,2.06,5.553,3.092
		c0.238,1.235,0.179,3.357,0.766,3.554c2.826,0.948,3.05-1.928,4.214-3.435c0.779,0.183,1.558,0.371,2.335,0.561
		c3.112,1.553,6.226,3.107,9.615,4.799c-5.644,3.374-14.105,0.538-16.426,8.944c-0.537,1.179-1.078,2.354-1.612,3.53
		C406.331,92.468,401.366,87.133,395.235,87.08z"/>
	<path fill-rule="evenodd" clip-rule="evenodd" fill="#D7A266" d="M398.695,40.51c2.846-4.201,6.605-5.726,11.498-3.933
		c-0.804,3.667-4.574,6.521-2.974,10.847c-1.684,6.511-5.845,9.314-12.474,8.193c0.657-3.604,1.349-7.387,2.039-11.171
		C397.421,43.134,398.059,41.822,398.695,40.51z"/>
	<path fill-rule="evenodd" clip-rule="evenodd" fill="#D7A266" d="M413.911,73.006c-1.852-1.032-3.701-2.063-5.553-3.092
		c-0.096-1.072-0.081-2.169-0.301-3.215c-0.61-2.904-1.166-5.78,1.901-7.728c1.66-1.054,3.574-1.267,4.91,0.266
		c1.972,2.262,2.881,5.113,1.974,8.049C416.22,69.301,414.913,71.107,413.911,73.006z"/>
	<path fill-rule="evenodd" clip-rule="evenodd" fill="#D7A266" d="M421.226,73.686c-0.777-0.189-1.556-0.377-2.335-0.561
		C420.094,71.509,420.918,71.513,421.226,73.686z"/>
	<path fill-rule="evenodd" clip-rule="evenodd" fill="#D8AE7C" d="M420.125,90.009c0.188,0.285,0.378,0.57,0.567,0.855
		c-0.204-0.28-0.407-0.561-0.611-0.84L420.125,90.009z"/>
	<path fill-rule="evenodd" clip-rule="evenodd" fill="#D8AE7C" d="M346.39,38.591c5.93,0.244,11.903,0.249,12.968,8.307
		c0.336,2.548-0.176,4.227-2.661,4.802c-0.837,0.195-1.881-0.506-2.831-0.799c3.26-7.707-13.569-2.881-7.646-12.25L346.39,38.591z"
		/>
</g>
<g>
	<path fill="#FFFFFF" d="M62.341,147.783c-1.201-4.564-2.763-7.967-4.685-10.21c-3.444-4.003-8.528-6.006-15.255-6.006
		c-6.006,0-11.012,2.083-15.015,6.246c-5.285,5.606-7.928,14.294-7.928,26.065c0,9.129,1.761,16.537,5.285,22.222
		c4.003,6.486,9.889,9.729,17.657,9.729c5.285,0,9.609-1.52,12.973-4.564c3.442-3.042,5.766-7.447,6.967-13.213H81.68
		c-2.162,10.732-6.447,19.099-12.853,25.104c-6.967,6.567-15.937,9.85-26.906,9.85c-12.653,0-22.702-4.204-30.149-12.612
		C3.923,191.586,0,179.295,0,163.518c0-15.615,4.043-27.826,12.132-36.636c7.606-8.328,17.576-12.492,29.909-12.492
		c12.411,0,22.301,3.804,29.669,11.411c5.925,6.246,9.249,13.573,9.97,21.981H62.341z"/>
	<path fill="#FFFFFF" d="M113.991,122.318c7.526-5.445,16.336-8.168,26.426-8.168c10.009,0,18.777,2.723,26.306,8.168
		c11.61,8.408,17.417,22.182,17.417,41.32c0,18.979-5.807,32.672-17.417,41.08c-7.608,5.525-16.377,8.288-26.306,8.288
		c-10.011,0-18.819-2.763-26.426-8.288c-11.531-8.408-17.297-22.102-17.297-41.08C96.694,144.5,102.46,130.726,113.991,122.318z
		 M124.201,189.583c4.324,4.324,9.729,6.486,16.216,6.486c6.405,0,11.771-2.162,16.096-6.486c5.685-5.604,8.528-14.252,8.528-25.945
		c0-11.771-2.844-20.499-8.528-26.186c-4.324-4.324-9.69-6.486-16.096-6.486c-6.486,0-11.892,2.162-16.216,6.486
		c-5.606,5.687-8.408,14.414-8.408,26.186C115.793,175.331,118.595,183.979,124.201,189.583z"/>
	<path fill="#FFFFFF" d="M203.238,116.552h46.605c10.489,0,18.258,3.405,23.303,10.21c3.522,4.805,5.285,10.291,5.285,16.456
		c0,5.285-1.242,9.93-3.724,13.934c-2.563,4.165-6.047,7.008-10.45,8.528c4.243,1.843,7.087,4.044,8.528,6.606
		c2.081,3.444,3.123,9.249,3.123,17.417c0,7.369,0.159,11.972,0.48,13.813c0.48,2.483,1.721,4.084,3.724,4.805v2.402h-21.381
		c-0.721-2.402-1.201-4.925-1.441-7.567c-0.321-3.042-0.48-6.847-0.48-11.411c0-7.126-0.721-11.73-2.162-13.813
		c-1.843-2.721-6.047-4.084-12.612-4.084h-19.939v36.876h-18.858V116.552z M244.559,158.233c5.045,0,8.728-1,11.051-3.003
		c2.402-2.082,3.604-5.445,3.604-10.09c0-3.363-0.802-6.084-2.402-8.168c-2.243-2.802-5.807-4.204-10.69-4.204h-24.023v25.465
		H244.559z"/>
	<path fill="#FFFFFF" d="M356.868,116.552h17.777v94.172h-18.979l-37.236-67.025h-0.36v67.025h-17.897v-94.172h20.3l36.275,65.704
		h0.12V116.552z"/>
	<path fill="#FFFFFF" d="M438.908,116.552h46.125c9.929,0,17.336,2.804,22.222,8.408c3.763,4.246,5.646,9.45,5.646,15.615
		c0,5.927-1.402,10.651-4.204,14.174c-1.522,1.922-3.844,3.724-6.967,5.405v0.12c5.124,1.843,8.889,4.925,11.291,9.249
		c2.001,3.525,3.003,7.969,3.003,13.333c0,3.684-0.762,7.288-2.282,10.811c-1.362,3.363-3.284,6.246-5.766,8.648
		c-2.964,2.963-6.087,5.005-9.369,6.126c-4.405,1.522-10.852,2.282-19.339,2.282h-40.359V116.552z M457.406,153.548h23.903
		c3.923,0,7.046-0.841,9.369-2.522c2.643-1.841,3.964-4.484,3.964-7.928c0-3.844-1.242-6.565-3.724-8.168
		c-2.162-1.441-5.566-2.162-10.21-2.162h-23.303V153.548z M457.406,194.628h24.744c4.805,0,8.408-1.121,10.811-3.363
		c2.562-2.322,3.844-5.886,3.844-10.69c0-3.763-1.441-6.685-4.324-8.769c-2.402-1.682-5.486-2.522-9.249-2.522h-25.825V194.628z"/>
	<path fill="#FFFFFF" d="M549.296,122.318c7.526-5.445,16.336-8.168,26.426-8.168c10.009,0,18.777,2.723,26.306,8.168
		c11.61,8.408,17.417,22.182,17.417,41.32c0,18.979-5.807,32.672-17.417,41.08c-7.608,5.525-16.377,8.288-26.306,8.288
		c-10.011,0-18.819-2.763-26.426-8.288c-11.531-8.408-17.297-22.102-17.297-41.08C531.999,144.5,537.765,130.726,549.296,122.318z
		 M559.506,189.583c4.324,4.324,9.729,6.486,16.216,6.486c6.405,0,11.771-2.162,16.096-6.486c5.685-5.604,8.528-14.252,8.528-25.945
		c0-11.771-2.844-20.499-8.528-26.186c-4.324-4.324-9.69-6.486-16.096-6.486c-6.486,0-11.892,2.162-16.216,6.486
		c-5.606,5.687-8.408,14.414-8.408,26.186C551.098,175.331,553.899,183.979,559.506,189.583z"/>
	<path fill="#FFFFFF" d="M713.736,210.724h-23.063l-17.297-31.951l-18.738,31.951h-22.342l29.549-47.927l-27.867-46.245h22.822
		l16.576,30.63l16.696-30.63h21.861l-27.867,45.404L713.736,210.724z"/>
</g>
</svg>
