<?xml version="1.0" encoding="utf-8"?>
<!-- Generator: Adobe Illustrator 16.0.0, SVG Export Plug-In . SVG Version: 6.00 Build 0)  -->
<!DOCTYPE svg PUBLIC "-//W3C//DTD SVG 1.1//EN" "http://www.w3.org/Graphics/SVG/1.1/DTD/svg11.dtd">
<svg version="1.1" id="Layer_1" xmlns="http://www.w3.org/2000/svg" xmlns:xlink="http://www.w3.org/1999/xlink" x="0px" y="0px"
	 width="239.016px" height="86.085px" viewBox="0 0 239.016 86.085" enable-background="new 0 0 239.016 86.085"
	 xml:space="preserve">
<path fill="#565555" d="M20,57.75l-8.75,26.5H0L28.625,0H41.75L70.5,84.25H58.875l-9-26.5H20z M47.625,49.25L39.375,25
	C37.5,19.5,36.25,14.5,35,9.625h-0.25c-1.25,5-2.625,10.125-4.25,15.25L22.25,49.25H47.625z"/>
<path fill="#565555" d="M102.5,0h10.875v6.51l125.641,0.167l0,0L113.375,17.426v38.951c0,22.375-11,29.25-25.5,29.25
	c-4,0-8.875-0.875-11.625-2l1.625-8.875c2.25,0.875,5.5,1.625,9.125,1.625c9.75,0,15.5-4.375,15.5-21.5V17.133L83.915,8.676V6.51
	L102.5,6.676V0z"/>
<path fill="#565555" d="M149.545,45.031h-15.61v14.479h17.398v4.351H128.75V23.7h21.689v4.35h-16.505v12.692h15.61V45.031
	L149.545,45.031z"/>
<path fill="#565555" d="M183.21,63.86c-1.132-1.132-2.205-2.264-3.754-3.933c-3.456,3.218-7.329,4.589-11.738,4.589
	c-7.805,0-12.334-5.244-12.334-11.263c0-5.48,3.277-9.235,7.866-11.737v-0.179c-2.086-2.622-3.337-5.542-3.337-8.401
	c0-4.886,3.516-9.891,10.188-9.891c5.005,0,8.878,3.337,8.878,8.521c0,4.23-2.443,7.567-8.818,10.725v0.179
	c3.396,3.932,7.209,8.342,9.771,11.202c1.847-2.801,3.099-6.672,3.873-11.737h4.767c-1.073,6.315-2.801,11.321-5.78,14.836
	c2.146,2.265,4.23,4.528,6.613,7.09H183.21z M176.894,56.949c-2.383-2.623-6.854-7.509-11.321-12.633
	c-2.145,1.37-5.184,3.932-5.184,8.163c0,4.587,3.396,8.104,8.223,8.104C172.068,60.583,174.987,59.035,176.894,56.949z
	 M164.679,32.459c0,2.86,1.311,5.065,3.038,7.209c4.053-2.324,6.674-4.469,6.674-7.865c0-2.443-1.37-5.184-4.647-5.184
	C166.407,26.62,164.679,29.361,164.679,32.459z"/>
<path fill="#565555" d="M227.958,46.223c-0.298-5.601-0.656-12.334-0.596-17.339h-0.179c-1.37,4.707-3.038,9.712-5.065,15.254
	l-7.09,19.484h-3.933L204.6,44.496c-1.907-5.661-3.517-10.845-4.647-15.611h-0.119c-0.12,5.005-0.417,11.738-0.774,17.756
	l-1.073,17.22h-4.945l2.8-40.16h6.613l6.854,19.424c1.668,4.946,3.039,9.355,4.052,13.526h0.179
	c1.013-4.052,2.443-8.461,4.23-13.526l7.15-19.424h6.614l2.502,40.16h-5.063L227.958,46.223z"/>
<path fill="#587F46" d="M128.895,72.983c0-1.806-0.036-3.284-0.146-4.728h2.816l0.18,2.887h0.072
	c0.866-1.66,2.888-3.284,5.774-3.284c2.418,0,6.173,1.442,6.173,7.435v10.432h-3.178v-10.07c0-2.814-1.047-5.16-4.042-5.16
	c-2.093,0-3.717,1.479-4.259,3.248c-0.145,0.396-0.217,0.938-0.217,1.479v10.503h-3.176L128.895,72.983L128.895,72.983z"/>
<path fill="#587F46" d="M151.413,65.107v3.148h3.243l-0.003,2.418h-3.24v9.42c0,2.166,0.613,3.393,2.382,3.393
	c0.83,0,1.444-0.107,1.84-0.216l0.146,2.382c-0.613,0.253-1.588,0.434-2.815,0.434c-1.479,0-2.671-0.469-3.429-1.334
	c-0.902-0.938-1.228-2.49-1.228-4.549v-9.527h-2.707v-2.418h2.707v-1.918L151.413,65.107z"/>
<g>
	<path fill="#C66D87" d="M205.883,80.75c0,1.517,0.031,2.851,0.122,4.002h-2.365l-0.151-2.396h-0.062
		c-0.696,1.183-2.243,2.729-4.851,2.729c-2.304,0-5.063-1.273-5.063-6.428v-8.58h2.668v8.125c0,2.789,0.849,4.668,3.273,4.668
		c1.789,0,3.032-1.242,3.518-2.425c0.151-0.396,0.241-0.88,0.241-1.364v-9.004h2.668L205.883,80.75L205.883,80.75z"/>
	<path fill="#C66D87" d="M207.69,82.023c0.788,0.516,2.183,1.061,3.516,1.061c1.94,0,2.851-0.969,2.851-2.183
		c0-1.272-0.759-1.97-2.729-2.698c-2.638-0.939-3.881-2.395-3.881-4.154c0-2.364,1.911-4.305,5.063-4.305
		c1.485,0,2.79,0.426,3.608,0.91l-0.667,1.939c-0.576-0.363-1.637-0.848-3.002-0.848c-1.577,0-2.456,0.91-2.456,2
		c0,1.213,0.879,1.76,2.79,2.486c2.546,0.971,3.851,2.244,3.851,4.428c0,2.576-2.001,4.396-5.487,4.396
		c-1.607,0-3.092-0.394-4.123-1L207.69,82.023z"/>
	<path fill="#C66D87" d="M221.338,65.955c0.03,0.91-0.637,1.639-1.697,1.639c-0.94,0-1.607-0.729-1.607-1.639
		c0-0.939,0.698-1.666,1.668-1.666C220.702,64.289,221.338,65.015,221.338,65.955z M218.367,84.751V70.078h2.667v14.674H218.367z"/>
	<path fill="#C66D87" d="M233.666,84.207c-0.698,0.363-2.244,0.85-4.216,0.85c-4.426,0-7.306-3.001-7.306-7.488
		c0-4.518,3.092-7.792,7.882-7.792c1.577,0,2.971,0.394,3.699,0.759l-0.606,2.062c-0.637-0.364-1.638-0.697-3.093-0.697
		c-3.365,0-5.186,2.485-5.186,5.548c0,3.395,2.184,5.487,5.095,5.487c1.516,0,2.517-0.394,3.273-0.728L233.666,84.207z"/>
</g>
<g>
	<g>
		<defs>
			<rect id="SVGID_1_" x="431" y="333.196" width="239.016" height="86.085"/>
		</defs>
		<clipPath id="SVGID_2_">
			<use xlink:href="#SVGID_1_"  overflow="visible"/>
		</clipPath>
		<g clip-path="url(#SVGID_2_)">
			<defs>
				<rect id="SVGID_3_" x="431" y="333.196" width="239.016" height="86.085"/>
			</defs>
			<clipPath id="SVGID_4_">
				<use xlink:href="#SVGID_3_"  overflow="visible"/>
			</clipPath>
			<path clip-path="url(#SVGID_4_)" fill="#565555" d="M451,390.946l-8.75,26.5H431l28.625-84.25h13.125l28.75,84.25h-11.625
				l-9-26.5H451z M478.625,382.446l-8.25-24.25c-1.875-5.5-3.125-10.5-4.375-15.375h-0.25c-1.25,5-2.625,10.125-4.25,15.25
				l-8.25,24.375H478.625z"/>
			<path clip-path="url(#SVGID_4_)" fill="#565555" d="M533.5,333.196h10.875v6.51l125.64,0.166l-125.64,10.749v38.95
				c0,22.375-11,29.25-25.5,29.25c-4,0-8.875-0.875-11.625-2l1.625-8.875c2.25,0.875,5.5,1.625,9.125,1.625
				c9.75,0,15.5-4.375,15.5-21.5v-37.742l-18.584-8.457v-2.166l18.584,0.166V333.196z"/>
			<polygon clip-path="url(#SVGID_4_)" fill="#565555" points="580.546,378.226 564.934,378.226 564.934,392.706 582.334,392.706 
				582.334,397.055 559.751,397.055 559.751,356.896 581.439,356.896 581.439,361.246 564.934,361.246 564.934,373.937 
				580.546,373.937 			"/>
			<path clip-path="url(#SVGID_4_)" fill="#565555" d="M614.21,397.055c-1.133-1.132-2.204-2.264-3.754-3.932
				c-3.456,3.217-7.329,4.588-11.737,4.588c-7.807,0-12.334-5.244-12.334-11.262c0-5.482,3.276-9.236,7.864-11.738v-0.179
				c-2.086-2.622-3.337-5.542-3.337-8.401c0-4.886,3.517-9.891,10.189-9.891c5.005,0,8.878,3.337,8.878,8.52
				c0,4.23-2.443,7.567-8.818,10.726v0.179c3.396,3.932,7.209,8.342,9.771,11.202c1.848-2.801,3.099-6.674,3.873-11.738h4.768
				c-1.073,6.315-2.801,11.321-5.78,14.837c2.145,2.264,4.23,4.528,6.613,7.09H614.21z M607.894,390.143
				c-2.383-2.621-6.854-7.508-11.321-12.632c-2.145,1.371-5.184,3.933-5.184,8.164c0,4.587,3.396,8.103,8.223,8.103
				C603.068,393.778,605.987,392.229,607.894,390.143 M595.679,365.654c0,2.86,1.311,5.065,3.039,7.209
				c4.051-2.322,6.673-4.468,6.673-7.863c0-2.443-1.37-5.185-4.647-5.185C597.407,359.815,595.679,362.556,595.679,365.654"/>
			<path clip-path="url(#SVGID_4_)" fill="#565555" d="M658.957,379.418c-0.297-5.601-0.656-12.334-0.596-17.339h-0.179
				c-1.37,4.707-3.038,9.712-5.065,15.254l-7.09,19.483h-3.932l-6.495-19.126c-1.907-5.661-3.517-10.846-4.647-15.611h-0.119
				c-0.119,5.005-0.418,11.738-0.774,17.756l-1.073,17.22h-4.945l2.801-40.16h6.613l6.853,19.425
				c1.669,4.945,3.039,9.354,4.052,13.525h0.18c1.012-4.052,2.442-8.461,4.229-13.525l7.149-19.425h6.615l2.502,40.16h-5.064
				L658.957,379.418z"/>
			<path clip-path="url(#SVGID_4_)" fill="#587F46" d="M559.895,406.178c0-1.805-0.036-3.283-0.146-4.728h2.816l0.18,2.887h0.072
				c0.867-1.66,2.888-3.284,5.774-3.284c2.42,0,6.174,1.443,6.174,7.436v10.431h-3.178V408.85c0-2.816-1.047-5.161-4.043-5.161
				c-2.092,0-3.717,1.479-4.258,3.248c-0.145,0.396-0.217,0.938-0.217,1.479v10.503h-3.176V406.178z"/>
			<path clip-path="url(#SVGID_4_)" fill="#587F46" d="M582.413,398.302v3.148h3.243l-0.003,2.419h-3.24v9.42
				c0,2.166,0.613,3.392,2.382,3.392c0.83,0,1.444-0.107,1.842-0.216l0.144,2.382c-0.613,0.253-1.588,0.435-2.815,0.435
				c-1.479,0-2.671-0.471-3.429-1.337c-0.901-0.938-1.227-2.489-1.227-4.548v-9.527h-2.707v-2.419h2.707v-1.917L582.413,398.302z"/>
			<path clip-path="url(#SVGID_4_)" fill="#C66D87" d="M636.883,412.604c0,1.516,0.031,2.85,0.122,4.002h-2.366l-0.15-2.396h-0.062
				c-0.696,1.183-2.243,2.729-4.851,2.729c-2.305,0-5.063-1.273-5.063-6.428v-8.58h2.668v8.125c0,2.789,0.849,4.669,3.274,4.669
				c1.789,0,3.031-1.242,3.518-2.425c0.152-0.395,0.242-0.88,0.242-1.363v-9.006h2.668V412.604z"/>
			<path clip-path="url(#SVGID_4_)" fill="#C66D87" d="M638.689,413.877c0.789,0.516,2.184,1.061,3.517,1.061
				c1.94,0,2.85-0.97,2.85-2.183c0-1.273-0.758-1.971-2.728-2.698c-2.639-0.94-3.883-2.396-3.883-4.154
				c0-2.365,1.912-4.305,5.064-4.305c1.485,0,2.789,0.425,3.607,0.91l-0.666,1.939c-0.576-0.364-1.637-0.849-3.002-0.849
				c-1.576,0-2.455,0.91-2.455,2.001c0,1.213,0.879,1.758,2.789,2.486c2.546,0.97,3.851,2.243,3.851,4.427
				c0,2.577-2.002,4.396-5.487,4.396c-1.608,0-3.094-0.394-4.123-1.001L638.689,413.877z"/>
			<path clip-path="url(#SVGID_4_)" fill="#C66D87" d="M652.338,397.808c0.031,0.909-0.636,1.638-1.697,1.638
				c-0.94,0-1.607-0.729-1.607-1.638c0-0.94,0.697-1.667,1.668-1.667C651.702,396.141,652.338,396.868,652.338,397.808
				 M649.367,401.932h2.667v14.674h-2.667V401.932z"/>
			<path clip-path="url(#SVGID_4_)" fill="#C66D87" d="M664.666,416.06c-0.699,0.363-2.244,0.849-4.217,0.849
				c-4.426,0-7.305-3.002-7.305-7.488c0-4.518,3.091-7.792,7.882-7.792c1.577,0,2.972,0.394,3.699,0.758l-0.606,2.062
				c-0.638-0.363-1.638-0.696-3.093-0.696c-3.364,0-5.185,2.485-5.185,5.548c0,3.395,2.183,5.486,5.094,5.486
				c1.516,0,2.518-0.393,3.273-0.727L664.666,416.06z"/>
		</g>
	</g>
</g>
</svg>
